<svg xmlns="http://www.w3.org/2000/svg" viewBox="0 0 1000 350"><path fill="#333" d="m89.15 267.58 61.04-184.36a.32.32 0 0 1 .3-.22h75.06a.32.32 0 0 1 .3.42L164.8 267.78a.32.32 0 0 1-.3.22H89.45a.32.32 0 0 1-.3-.42ZM226.14 267.58 287.2 83.22a.32.32 0 0 1 .3-.22h75.07a.32.32 0 0 1 .3.42l-61.06 184.36a.32.32 0 0 1-.3.22h-75.07a.32.32 0 0 1-.3-.42ZM363.15 267.59l61.06-184.38a.31.31 0 0 1 .29-.21h75.07a.31.31 0 0 1 .3.41l-61.05 184.38a.31.31 0 0 1-.29.21h-75.08a.31.31 0 0 1-.3-.41ZM636.85 83.42 575.8 267.78a.32.32 0 0 1-.3.22h-75.05a.32.32 0 0 1-.3-.42l61.04-184.36a.32.32 0 0 1 .3-.22h75.06a.32.32 0 0 1 .3.42ZM773.88 83.39l-61.07 184.4a.3.3 0 0 1-.29.21h-75.1a.3.3 0 0 1-.29-.39l61.07-184.4a.3.3 0 0 1 .29-.21h75.1a.3.3 0 0 1 .29.39ZM774.15 267.59l61.06-184.38a.31.31 0 0 1 .29-.21h75.07a.31.31 0 0 1 .3.41l-61.05 184.38a.31.31 0 0 1-.29.21h-75.08a.31.31 0 0 1-.3-.41Z"/></svg>