<svg xmlns="http://www.w3.org/2000/svg" viewBox="0 0 500 500"><path fill="#333" d="M40.73 40h418.54a.73.73 0 0 1 .73.73v418.54a.73.73 0 0 1-.73.73H40.73a.73.73 0 0 1-.73-.73V40.73a.73.73 0 0 1 .73-.73ZM422.5 60.51a.3.3 0 0 0-.21-.51H77.71a.3.3 0 0 0-.21.51L249.79 232.8a.3.3 0 0 0 .42 0L422.5 60.51ZM60.58 77.57a.34.34 0 0 0-.58.24v344.38a.34.34 0 0 0 .58.24l172.19-172.19a.34.34 0 0 0 0-.48L60.58 77.57ZM439.49 422.5a.3.3 0 0 0 .51-.21V77.71a.3.3 0 0 0-.51-.21L267.2 249.79a.3.3 0 0 0 0 .42L439.49 422.5ZM77.56 439.43a.33.33 0 0 0 .24.57h344.4a.33.33 0 0 0 .24-.57l-172.21-172.2a.33.33 0 0 0-.46 0L77.56 439.43Z"/></svg>