<svg xmlns="http://www.w3.org/2000/svg" viewBox="0 0 700 500"><path fill="#333" d="m149.65 46.89-56.9 57.76a.49.49 0 0 1-.7 0l-7.71-7.87a.49.49 0 0 1 0-.68l56.9-57.77a.49.49 0 0 1 .7 0l7.71 7.88a.49.49 0 0 1 0 .68Z"/><rect width="12.12" height="82.62" x="-6.06" y="-41.31" fill="#333" rx=".47" transform="rotate(45 5.954 258.456)"/><path fill="#333" d="m282.66 46.88-56.91 57.77a.49.49 0 0 1-.7 0l-7.69-7.88a.49.49 0 0 1 0-.68l56.88-57.76a.49.49 0 0 1 .7.01l7.72 7.86a.49.49 0 0 1 0 .68Z"/><rect width="12.12" height="82.62" x="-6.06" y="-41.31" fill="#333" rx=".47" transform="rotate(45 72.459 419.013)"/><rect width="12.12" height="82.62" x="-6.06" y="-41.31" fill="#333" rx=".46" transform="rotate(45 105.449 498.658)"/><path fill="#333" d="m482.66 46.88-56.91 57.77a.49.49 0 0 1-.7 0l-7.7-7.88a.49.49 0 0 1 0-.68l56.89-57.76a.49.49 0 0 1 .7.01l7.72 7.86a.49.49 0 0 1 0 .68Z"/><rect width="12.12" height="82.62" x="-6.06" y="-41.31" fill="#333" rx=".47" transform="rotate(45 171.954 659.216)"/><path fill="#333" d="m615.67 46.88-56.92 57.77a.49.49 0 0 1-.7 0l-7.69-7.88a.49.49 0 0 1 0-.68l56.89-57.76a.49.49 0 0 1 .7.01l7.72 7.86a.49.49 0 0 1 0 .68ZM149.64 135.9l-56.89 57.76a.49.49 0 0 1-.7 0l-7.71-7.87a.49.49 0 0 1 0-.68l56.9-57.77a.49.49 0 0 1 .7 0l7.7 7.88a.49.49 0 0 1 0 .68Z"/><rect width="12.12" height="82.62" x="-6.06" y="-41.31" fill="#333" rx=".47" transform="rotate(45 -101.49 302.961)"/><path fill="#333" d="m282.65 135.9-56.9 57.76a.49.49 0 0 1-.7 0l-7.7-7.87a.49.49 0 0 1 0-.68l56.9-57.77a.49.49 0 0 1 .7 0l7.7 7.88a.49.49 0 0 1 0 .68Z"/><rect width="12.12" height="82.62" x="-6.06" y="-41.31" fill="#333" rx=".47" transform="rotate(45 -34.986 463.518)"/><rect width="12.12" height="82.62" x="-6.06" y="-41.31" fill="#333" rx=".46" transform="rotate(45 -1.996 543.163)"/><path fill="#333" d="m482.65 135.9-56.9 57.76a.49.49 0 0 1-.7 0l-7.71-7.87a.49.49 0 0 1 0-.68l56.91-57.77a.49.49 0 0 1 .7 0l7.7 7.88a.49.49 0 0 1 0 .68Z"/><rect width="12.12" height="82.62" x="-6.06" y="-41.31" fill="#333" rx=".47" transform="rotate(45 64.51 703.72)"/><path fill="#333" d="m615.66 135.9-56.9 57.76a.49.49 0 0 1-.7 0l-7.7-7.88a.49.49 0 0 1 0-.68l56.89-57.76a.49.49 0 0 1 .7 0l7.71 7.88a.49.49 0 0 1 0 .68ZM149.64 224.91l-56.88 57.76a.49.49 0 0 1-.7 0l-7.72-7.87a.49.49 0 0 1 0-.68l56.91-57.77a.49.49 0 0 1 .7 0l7.69 7.88a.49.49 0 0 1 0 .68Z"/><rect width="12.12" height="82.62" x="-6.06" y="-41.31" fill="#333" rx=".47" transform="rotate(45 -209.435 346.26)"/><rect width="12.12" height="82.62" x="-6.06" y="-41.31" fill="#333" rx=".46" transform="rotate(45 -175.94 427.123)"/><path fill="#333" d="m348.64 224.91-56.89 57.76a.49.49 0 0 1-.7-.01l-7.72-7.86a.49.49 0 0 1 0-.68l56.92-57.77a.49.49 0 0 1 .7 0l7.69 7.88a.49.49 0 0 1 0 .68Z"/><rect width="12.12" height="82.62" x="-6.06" y="-41.31" fill="#333" rx=".46" transform="rotate(45 -109.435 587.68)"/><path fill="#333" d="m481.65 224.91-56.89 57.76a.49.49 0 0 1-.7 0l-7.72-7.87a.49.49 0 0 1 0-.68l56.91-57.77a.49.49 0 0 1 .7 0l7.7 7.88a.49.49 0 0 1 0 .68Z"/><rect width="12.12" height="82.62" x="-6.06" y="-41.31" fill="#333" rx=".46" transform="rotate(45 -42.93 748.238)"/><rect width="12.12" height="82.62" x="-6.06" y="-41.31" fill="#333" rx=".45" transform="rotate(45 -9.935 827.895)"/><path fill="#333" d="m149.64 314.9-56.89 57.76a.49.49 0 0 1-.7 0l-7.71-7.87a.49.49 0 0 1 0-.68l56.9-57.77a.49.49 0 0 1 .7 0l7.7 7.88a.49.49 0 0 1 0 .68Z"/><rect width="12.12" height="82.62" x="-6.06" y="-41.31" fill="#333" rx=".47" transform="rotate(45 -317.563 392.461)"/><path fill="#333" d="m282.65 314.9-56.9 57.76a.49.49 0 0 1-.7 0l-7.7-7.87a.49.49 0 0 1 0-.68l56.9-57.77a.49.49 0 0 1 .7 0l7.7 7.88a.49.49 0 0 1 0 .68Z"/><rect width="12.12" height="82.62" x="-6.06" y="-41.31" fill="#333" rx=".47" transform="rotate(45 -251.058 553.018)"/><rect width="12.12" height="82.62" x="-6.06" y="-41.31" fill="#333" rx=".47" transform="rotate(45 -218.068 632.663)"/><path fill="#333" d="m482.65 314.9-56.9 57.76a.49.49 0 0 1-.7 0l-7.71-7.87a.49.49 0 0 1 0-.68l56.91-57.77a.49.49 0 0 1 .7 0l7.7 7.88a.49.49 0 0 1 0 .68Z"/><rect width="12.12" height="82.62" x="-6.06" y="-41.31" fill="#333" rx=".47" transform="rotate(45 -151.563 793.22)"/><path fill="#333" d="m615.66 314.9-56.9 57.77a.49.49 0 0 1-.7 0l-7.7-7.89a.49.49 0 0 1 0-.68l56.89-57.76a.49.49 0 0 1 .7 0l7.71 7.88a.49.49 0 0 1 0 .68ZM149.65 403.9l-56.89 57.77a.49.49 0 0 1-.7 0l-7.72-7.87a.49.49 0 0 1 0-.68l56.91-57.77a.49.49 0 0 1 .7 0l7.7 7.87a.49.49 0 0 1 0 .68Z"/><rect width="12.12" height="82.62" x="-6.06" y="-41.31" fill="#333" rx=".47" transform="rotate(45 -425.507 435.76)"/><rect width="12.12" height="82.62" x="-6.06" y="-41.31" fill="#333" rx=".46" transform="rotate(45 -392.012 516.623)"/><path fill="#333" d="m283.33 453.12 56.92-57.77a.49.49 0 0 1 .7 0l7.69 7.88a.49.49 0 0 1 0 .68l-56.89 57.76a.49.49 0 0 1-.7-.01l-7.72-7.86a.49.49 0 0 1 0-.68Z"/><rect width="12.12" height="82.62" x="-6.06" y="-41.31" fill="#333" rx=".47" transform="rotate(45 -325.507 677.18)"/><path fill="#333" d="m481.65 403.9-56.89 57.77a.49.49 0 0 1-.7 0l-7.72-7.87a.49.49 0 0 1 0-.68l56.91-57.77a.49.49 0 0 1 .7 0l7.7 7.87a.49.49 0 0 1 0 .68Z"/><rect width="12.12" height="82.62" x="-6.06" y="-41.31" fill="#333" rx=".47" transform="rotate(45 -259.002 837.738)"/><rect width="12.12" height="82.62" x="-6.06" y="-41.31" fill="#333" rx=".46" transform="rotate(45 -226.007 917.395)"/></svg>