<svg xmlns="http://www.w3.org/2000/svg" viewBox="0 0 500 1200"><path fill="#333" d="M82.12 525.68v204.75a.69.69 0 0 0 .69.69l29.99.01a.69.69 0 0 1 .69.69l.01 6.74a.69.69 0 0 1-.69.69h-30a.69.69 0 0 0-.69.69l.01 6.54a.69.69 0 0 0 .69.69l29.99.06a.69.69 0 0 1 .69.69v6.63a.69.69 0 0 1-.69.69l-30.01.04a.69.69 0 0 0-.69.69l.02 6.55a.69.69 0 0 0 .69.69h29.99a.69.69 0 0 1 .69.69v6.66a.69.69 0 0 1-.69.69H82.8a.69.69 0 0 0-.69.69l.01 167.82a.69.69 0 0 0 .69.69l10.75.02a.69.69 0 0 1 .69.69v34.65a.69.69 0 0 1-.69.69H58.44a.69.69 0 0 1-.69-.69v-34.65a.69.69 0 0 1 .69-.69l10.76-.02a.69.69 0 0 0 .69-.69V771.94a.69.69 0 0 0-.69-.69H39.19a.69.69 0 0 1-.69-.69v-6.62a.69.69 0 0 1 .69-.69l30.04-.06a.69.69 0 0 0 .68-.69l-.04-6.54a.69.69 0 0 0-.69-.68l-29.99-.08a.69.69 0 0 1-.69-.69l.01-6.51a.69.69 0 0 1 .69-.69l29.99-.18a.69.69 0 0 0 .69-.69v-6.5a.69.69 0 0 0-.69-.69h-30a.69.69 0 0 1-.69-.69v-6.63a.69.69 0 0 1 .69-.69l30.01-.14a.69.69 0 0 0 .69-.69V525.67a.69.69 0 0 0-.69-.69l-4.71-.03a.69.69 0 0 1-.69-.69V361.37a.69.69 0 0 1 .68-.69l4.73-.09a.69.69 0 0 0 .68-.69v-98.66a.69.69 0 0 0-.69-.69l-10.76-.02a.69.69 0 0 1-.69-.69v-34.65a.69.69 0 0 1 .69-.69h35.12a.69.69 0 0 1 .69.69v34.65a.69.69 0 0 1-.69.69l-10.75.02a.69.69 0 0 0-.69.69V360a.69.69 0 0 0 .69.69l4.73-.01a.69.69 0 0 1 .69.69l-.11 162.77a.69.69 0 0 1-.67.69l-4.66.16a.69.69 0 0 0-.67.69ZM87 231.95a.41.41 0 0 0-.41-.41H65.41a.41.41 0 0 0-.41.41v21.1a.41.41 0 0 0 .41.41h21.18a.41.41 0 0 0 .41-.41v-21.1Zm0 716.02a.43.43 0 0 0-.43-.43H65.43a.43.43 0 0 0-.43.43v21.06a.43.43 0 0 0 .43.43h21.14a.43.43 0 0 0 .43-.43v-21.06Z"/></svg>