<svg xmlns="http://www.w3.org/2000/svg" viewBox="0 0 800 500"><path fill="#333" d="M88 119.7v34.59a.7.7 0 0 1-.7.7l-32.6.01a.7.7 0 0 1-.7-.7V34.7a.7.7 0 0 1 .7-.7h32.6a.7.7 0 0 1 .7.7v35.6a.7.7 0 0 0 .7.7h238.6a.7.7 0 0 1 .7.7v46.6a.7.7 0 0 1-.7.7H88.7a.7.7 0 0 0-.7.7Z"/><rect width="156.02" height="48" x="344" y="71" fill="#333" rx=".92"/><rect width="191" height="48" x="519" y="71" fill="#333" rx=".96"/><path fill="#333" d="M88 274.61v35.77a.61.61 0 0 1-.61.61l-32.78.01a.61.61 0 0 1-.61-.61V190.62a.61.61 0 0 1 .61-.61l32.78-.01a.61.61 0 0 1 .61.61v34.78a.61.61 0 0 0 .61.61h132.78a.61.61 0 0 1 .61.61v46.78a.61.61 0 0 1-.61.61H88.61a.61.61 0 0 0-.61.61Z"/><rect width="113" height="48" x="256" y="226" fill="#333" rx=".54"/><rect width="204" height="48" x="400" y="226" fill="#333" rx=".61"/><path fill="#333" d="M88 431.69v34.61a.69.69 0 0 1-.69.69l-32.62.01a.69.69 0 0 1-.69-.69V346.69a.69.69 0 0 1 .69-.69h32.62a.69.69 0 0 1 .69.69v35.62a.69.69 0 0 0 .69.69h366.62a.69.69 0 0 1 .69.69v46.62a.69.69 0 0 1-.69.69H88.69a.69.69 0 0 0-.69.69Z"/><rect width="53" height="48" x="484" y="383" fill="#333" rx=".63"/></svg>