<svg xmlns="http://www.w3.org/2000/svg" viewBox="0 0 3161 662"><g fill="none" stroke="#999" stroke-width="2"><path d="m498.73 233.23-15.23 7.57a1.4 1.4 0 0 0-.55 2.02c1.91 2.93 4.47 6.23 5.71 9.58 1.3 3.51 3.98 7.04 5.89 10.3q.38.65 2 4.25.96 2.14 2.54 3.95.3.33.34.77.09 1.14.76 2.01.41.53 1 .21l9.95-5.36q.49-.27 1.05-.36 2.5-.41 4.38-2.29a1.22 1.21-36.4 0 0 .22-1.44l-12.88-23.94q-.23-.44-.68-.64-.54-.24-.28-.93a.53.52 39.7 0 0-.05-.48l-3.11-4.92a.83.83 0 0 0-1.06-.3M731.8 233.46a.35.35 0 0 0-.43-.23l-17.14 4.6a.35.35 0 0 0-.24.45l11.88 34.67a.35.35 0 0 0 .43.22l16.97-4.85a.35.35 0 0 0 .23-.45l-11.7-34.41M688.06 243.61l10.98 31.88a.35.35 0 0 0 .43.23l16.05-4.64q.66-.19.46-.85-3.49-11.7-6.67-21.04c-1.02-3.01-2.22-8.11-4.14-11.75a1.83 1.82 66.6 0 0-2.21-.88l-13.79 4.77a1.8 1.79 71.1 0 0-1.11 2.28M473.88 245.66v-.46q-.01-.45-.25-.85-2.33-3.84-4.42-6.84a2.13 2.12 56.2 0 0-2.88-.58q-2.97 1.87-6.01 3.65c-2.18 1.28-5.04 1.74-7.3 3.37a.96.95-32.2 0 0-.28 1.22l16.76 30.7a.52.51 62.1 0 0 .68.21l14.64-7.22a1.69 1.69 0 0 0 .69-2.41c-2.1-3.39-4.54-6.93-5.79-10.63q-.83-2.44-1.48-3.19-1.51-1.74-2.58-3.76-.66-1.23-1.51-2.38-.27-.37-.27-.83" vector-effect="non-scaling-stroke"/><path d="M598.24 308.25h64.73q.46 0 .48.46.39 14.44-.69 28.83c-2.18 28.97-12.33 48.53-40.21 58.97-13.24 4.95-28.13 7.21-42.22 8.55a.54.54 0 0 0-.48.65l4.06 19.33q.14.65.8.59c23.23-2.07 46.9-6.75 66.44-18.72 28.74-17.62 35.39-52.69 35.52-83.67q.04-7.19.1-14.51.01-.48.49-.48h39.51q.53 0 .53-.52l.01-19.93a.26.26 0 0 0-.26-.26h-39.79q-.52 0-.52-.53v-36.26a.49.49 0 0 0-.49-.49H664a.49.49 0 0 0-.49.49v36.27q0 .52-.53.52l-64.75-.01a.55.55 0 0 1-.55-.55l.06-36.23a.5.49 90 0 0-.49-.5l-21.49.02a.48.47 0 0 0-.48.47l-.02 36.26q0 .52-.51.52l-32.95.03a.63.63 0 0 0-.63.63v19.53a.54.54 0 0 0 .54.54l33.05-.01q.52 0 .52.52l-.01 44.42a1.03 1.03 0 0 0 1.02 1.03l20.82.01a.58.47 0 0 0 .58-.47l.04-44.99q0-.51.51-.51M864.74 329.79l-.01 94.95a.51.51 0 0 0 .51.51h23.27a.51.51 0 0 0 .51-.51l-.03-107.25q0-.51.44-.76c21.96-12.38 41.89-26.2 59.97-43.83q1.19-1.16 1.99-2.08.39-.46-.01-.92l-13.3-15.2q-.37-.42-.77-.02c-22.59 22.81-48.61 39.71-77.73 53.09-25.73 11.82-53.36 20.34-81.43 24.12a.74.73-8.7 0 0-.63.85l3.39 19.99a.49.47 80.8 0 0 .54.4q42.86-6.37 82.45-23.89a.6.6 0 0 1 .84.55M1089.81 291.78c-21.18-12.49-42.62-23.76-64.62-34.48a1.04 1.03-63.1 0 0-1.37.45l-9.88 18.75q-.29.54.27.81c21.91 10.46 43.33 22.52 64.21 34.89q.47.28.74-.19l10.94-19.17q.38-.67-.29-1.06M455.03 260.43a.66.66 0 0 0-.66-.66H344.19a.66.66 0 0 0-.66.66v19.4a.66.66 0 0 0 .66.66h110.18a.66.66 0 0 0 .66-.66v-19.4M1164.59 335.99c1.02-2.64 2.32-4.78 3.4-7.22q9.8-22.05 13.89-45.83.05-.3.25-.53.13-.15.27-.3a.38.37-62.3 0 0-.19-.62l-21.21-4.68q-.47-.11-.57.37c-9.18 47.34-33.86 86.3-80.1 104.67q-29.56 11.75-61.18 14.07-.78.06-.66.83l3.1 21q.08.54.62.5c44.42-3.64 89.04-17.8 120.41-51.13q3.28-3.48 10.84-12.89.69-.86 1.29-2.13c.86-1.83 2.33-2.84 3.13-4.47q1.15-2.33 1.31-2.59c1.77-2.73 4.24-6.06 5.4-9.05M349.15 408.03l6.33 19.2q.22.68.91.51c30.29-7.25 57.73-22.07 67.78-54.01 3.73-11.87 4.64-22.11 5.29-35.09q.03-.49.51-.49l70.2-.02q.81 0 .81-.8v-19.35q0-.49-.5-.49H319.25a.26.26 0 0 0-.26.26l.02 19.7a.69.68 0 0 0 .69.68l85.1.04q.6 0 .62.6c.35 17.86-4.28 38.2-18.25 50.4q-8.09 7.05-18.78 11.38-.14.06-.3.06l-.33.02q-.24.01-.47.13-5.29 2.55-10.86 4.41c-1.45.48-3.19.39-4.8 1.22q-.8.41-1.34.31a1.02 1.01 85.9 0 0-1.14 1.33M2499.99 275.48l2.06-.56q.37-.1.65-.34c1.55-1.33 3.64-1.72 5.06-2.43q3.17-1.59 5.56-2.82 1.8-.92.78-2.67-2.6-4.5-4.81-8.67c-.63-1.19-.76-2.62-1.5-3.69-2.66-3.84-4.91-8.77-6.84-11.97q-1.84-3.07-3.58-5.7-.75-1.14-1.91-.42-3.95 2.44-8.17 4.68c-1.81.96-4.43 1.33-6.36 2.96a.67.66 59.3 0 0-.19.77q1.62 3.89 3.81 7.52c3.4 5.66 5.59 9.99 8.49 14.97 1.45 2.49 2.43 5.95 4.57 8.66q.35.45.73.55.61.16 1.01-.4.24-.33.64-.44M2450.45 247.99l16.81 30.7q.26.47.74.23l15.33-7.64a.39.39 0 0 0 .17-.53l-16.16-30.67a1.4 1.35 59.4 0 0-1.96-.54c-1.92 1.27-4.26 1.71-6.16 2.75q-4.32 2.39-8.57 4.96-.46.28-.2.74M2415.95 268.784a.26.26 0 0 0-.208-.303l-72.525-13.442a.26.26 0 0 0-.303.208l-3.824 20.63a.26.26 0 0 0 .208.302l72.525 13.442a.26.26 0 0 0 .303-.208l3.824-20.63M2185.16 294.09q.37-.36.46-.82.11-.53-.36-.81-24.45-14.22-49.73-26.89-7.57-3.79-15.02-7.69a.85.85 0 0 0-1.14.36l-9.91 18.77q-.42.8.39 1.2 32.95 16.1 64.35 35.01a.2.2 0 0 0 .28-.09q1.35-2.88 3.08-5.61.64-1.01 1.23-2.06 2.7-4.85 5.53-9.62.4-.67.63-1.41a.78.75 77.7 0 1 .21-.34M2930.56 282.24c-7.7 23.01-24.83 40.26-46.01 51.46a.49.49 0 0 0-.18.71l11.8 17.39a.69.69 0 0 0 .9.22c25.65-14.05 47.55-37.57 56.77-65.77q1.18-3.61 1.24-7.67.12-8.14-.05-16.36-.01-.5-.52-.5l-169.68.01q-.58 0-.58.57v18.95a.5.5 0 0 0 .5.5h145.46q.52 0 .35.49M1948.24 391.55a.5.5 0 0 1-.5.5h-70.56a.5.5 0 0 0-.5.5l-.01 19.49a.5.5 0 0 0 .5.5l166.13.01a.5.5 0 0 0 .5-.5l-.03-19.5a.5.5 0 0 0-.5-.5h-70.46a.5.5 0 0 1-.5-.5l-.03-105.46a.5.5 0 0 1 .5-.5l63.97-.02a.5.5 0 0 0 .5-.5l.01-19.65a.5.5 0 0 0-.5-.5h-153a.5.5 0 0 0-.5.5l-.01 19.67a.5.5 0 0 0 .5.5l63.99-.02a.5.5 0 0 1 .5.5v105.48M2710.24 265.37a.42.42 0 0 0-.42-.42H2569.1a.42.42 0 0 0-.42.42v21.48a.42.42 0 0 0 .42.42h140.72a.42.42 0 0 0 .42-.42v-21.48M2249.29 353.44q4.73-5.48 5.81-7.84c1.97-4.33 4.96-8.32 6.71-12.31q2.8-6.4 5.32-12.92 7.08-18.3 10.37-37.74a.45.44-79.1 0 0-.34-.51l-20.42-4.5q-.88-.2-1.04.69-3.31 18.12-10.54 35.54-19.06 45.92-64.32 66.39c-21.04 9.51-43.61 14.64-66.56 16.55a.42.42 0 0 0-.38.48q1.48 10.61 3.1 21.25.18 1.18 1.18.6.43-.24.91-.28c50.69-4.33 99.31-22.34 130.01-64.51q.04-.05.03-.12-.01-.16-.01-.31-.01-.27.17-.46M2426.11 379.29c-25.58 15.56-57.27 22-87.18 24.27q-.89.07-.75.95l3.13 20.66a.21.21 0 0 0 .22.18c29.06-2.24 58.5-8.24 84.82-21.04q34.41-16.73 53.1-50.08c11.34-20.23 18.49-43.18 22.27-66.21q.08-.5-.42-.59l-20.2-3.45q-1.01-.17-1.18.84c-6.07 36.43-20.78 74.39-53.81 94.47" vector-effect="non-scaling-stroke"/><path d="M2812.87 421.12c1.27-.83 3.06-1.18 4.41-2.01q5.72-3.54 9.75-6.39c25.56-18.13 33.89-45.66 37.21-76.23q1.94-17.82 1.71-35.78a.56.56 0 0 0-.57-.55l-21.19.04q-.97 0-.96.97c.11 20.29-1.17 40.79-6.95 60.06q-7.2 23.98-27.62 37.1-1 .64-2.96 1.52-1.53.68-2.96 1.56-3.56 2.19-7.15 4.09a.41.4-29.3 0 0-.16.56l10.48 17.96a.89.89 0 0 0 1.14.35q3.09-1.45 5.82-3.25M2403.787 321.24a.26.26 0 0 0-.206-.305l-69.915-13.464a.26.26 0 0 0-.305.206l-3.948 20.504a.26.26 0 0 0 .206.304l69.915 13.464a.26.26 0 0 0 .305-.206l3.948-20.504M2724.99 390.92a.56.56 0 0 0-.56-.56h-169.96a.56.56 0 0 0-.56.56v21.04a.56.56 0 0 0 .56.56h169.96a.56.56 0 0 0 .56-.56v-21.04" vector-effect="non-scaling-stroke"/></g><path fill="#333" d="M1383.77 493.44a.29.29 0 0 1-.29.29H118.26a.29.29 0 0 1-.29-.29V167.76a.29.29 0 0 1 .29-.29h1265.22a.29.29 0 0 1 .29.29v325.68ZM498.73 233.23l-15.23 7.57a1.4 1.4 0 0 0-.55 2.02c1.91 2.93 4.47 6.23 5.71 9.58 1.3 3.51 3.98 7.04 5.89 10.3q.38.65 2 4.25.96 2.14 2.54 3.95.3.33.34.77.09 1.14.76 2.01.41.53 1 .21l9.95-5.36q.49-.27 1.05-.36 2.5-.41 4.38-2.29a1.22 1.21-36.4 0 0 .22-1.44l-12.88-23.94q-.23-.44-.68-.64-.54-.24-.28-.93a.53.52 39.7 0 0-.05-.48l-3.11-4.92a.83.83 0 0 0-1.06-.3Zm233.07.23a.35.35 0 0 0-.43-.23l-17.14 4.6a.35.35 0 0 0-.24.45l11.88 34.67a.35.35 0 0 0 .43.22l16.97-4.85a.35.35 0 0 0 .23-.45l-11.7-34.41Zm-43.74 10.15 10.98 31.88a.35.35 0 0 0 .43.23l16.05-4.64q.66-.19.46-.85-3.49-11.7-6.67-21.04c-1.02-3.01-2.22-8.11-4.14-11.75a1.83 1.82 66.6 0 0-2.21-.88l-13.79 4.77a1.8 1.79 71.1 0 0-1.11 2.28Zm-214.18 2.05v-.46q-.01-.45-.25-.85-2.33-3.84-4.42-6.84a2.13 2.12 56.2 0 0-2.88-.58q-2.97 1.87-6.01 3.65c-2.18 1.28-5.04 1.74-7.3 3.37a.96.95-32.2 0 0-.28 1.22l16.76 30.7a.52.51 62.1 0 0 .68.21l14.64-7.22a1.69 1.69 0 0 0 .69-2.41c-2.1-3.39-4.54-6.93-5.79-10.63q-.83-2.44-1.48-3.19-1.51-1.74-2.58-3.76-.66-1.23-1.51-2.38-.27-.37-.27-.83Zm124.36 62.59h64.73q.46 0 .48.46.39 14.44-.69 28.83c-2.18 28.97-12.33 48.53-40.21 58.97-13.24 4.95-28.13 7.21-42.22 8.55a.54.54 0 0 0-.48.65l4.06 19.33q.14.65.8.59c23.23-2.07 46.9-6.75 66.44-18.72 28.74-17.62 35.39-52.69 35.52-83.67q.04-7.19.1-14.51.01-.48.49-.48h39.51q.53 0 .53-.52l.01-19.93a.26.26 0 0 0-.26-.26h-39.79q-.52 0-.52-.53v-36.26a.49.49 0 0 0-.49-.49H664a.49.49 0 0 0-.49.49v36.27q0 .52-.53.52l-64.75-.01a.55.55 0 0 1-.55-.55l.06-36.23a.5.49 90 0 0-.49-.5l-21.49.02a.48.47 0 0 0-.48.47l-.02 36.26q0 .52-.51.52l-32.95.03a.63.63 0 0 0-.63.63v19.53a.54.54 0 0 0 .54.54l33.05-.01q.52 0 .52.52l-.01 44.42a1.03 1.03 0 0 0 1.02 1.03l20.82.01a.58.47 0 0 0 .58-.47l.04-44.99q0-.51.51-.51Zm266.5 21.54-.01 94.95a.51.51 0 0 0 .51.51h23.27a.51.51 0 0 0 .51-.51l-.03-107.25q0-.51.44-.76c21.96-12.38 41.89-26.2 59.97-43.83q1.19-1.16 1.99-2.08.39-.46-.01-.92l-13.3-15.2q-.37-.42-.77-.02c-22.59 22.81-48.61 39.71-77.73 53.09-25.73 11.82-53.36 20.34-81.43 24.12a.74.73-8.7 0 0-.63.85l3.39 19.99a.49.47 80.8 0 0 .54.4q42.86-6.37 82.45-23.89a.6.6 0 0 1 .84.55Zm225.07-38.01c-21.18-12.49-42.62-23.76-64.62-34.48a1.04 1.03-63.1 0 0-1.37.45l-9.88 18.75q-.29.54.27.81c21.91 10.46 43.33 22.52 64.21 34.89q.47.28.74-.19l10.94-19.17q.38-.67-.29-1.06Zm-634.78-31.35a.66.66 0 0 0-.66-.66H344.19a.66.66 0 0 0-.66.66v19.4a.66.66 0 0 0 .66.66h110.18a.66.66 0 0 0 .66-.66v-19.4Zm709.56 75.56c1.02-2.64 2.32-4.78 3.4-7.22q9.8-22.05 13.89-45.83.05-.3.25-.53.13-.15.27-.3a.38.37-62.3 0 0-.19-.62l-21.21-4.68q-.47-.11-.57.37c-9.18 47.34-33.86 86.3-80.1 104.67q-29.56 11.75-61.18 14.07-.78.06-.66.83l3.1 21q.08.54.62.5c44.42-3.64 89.04-17.8 120.41-51.13q3.28-3.48 10.84-12.89.69-.86 1.29-2.13c.86-1.83 2.33-2.84 3.13-4.47q1.15-2.33 1.31-2.59c1.77-2.73 4.24-6.06 5.4-9.05Zm-815.44 72.04 6.33 19.2q.22.68.91.51c30.29-7.25 57.73-22.07 67.78-54.01 3.73-11.87 4.64-22.11 5.29-35.09q.03-.49.51-.49l70.2-.02q.81 0 .81-.8v-19.35q0-.49-.5-.49H319.25a.26.26 0 0 0-.26.26l.02 19.7a.69.68 0 0 0 .69.68l85.1.04q.6 0 .62.6c.35 17.86-4.28 38.2-18.25 50.4q-8.09 7.05-18.78 11.38-.14.06-.3.06l-.33.02q-.24.01-.47.13-5.29 2.55-10.86 4.41c-1.45.48-3.19.39-4.8 1.22q-.8.41-1.34.31a1.02 1.01 85.9 0 0-1.14 1.33ZM3043.75 493.47a.26.26 0 0 1-.26.26H1778.15a.26.26 0 0 1-.26-.26V167.73a.26.26 0 0 1 .26-.26h1265.34a.26.26 0 0 1 .26.26v325.74Zm-543.76-217.99 2.06-.56q.37-.1.65-.34c1.55-1.33 3.64-1.72 5.06-2.43q3.17-1.59 5.56-2.82 1.8-.92.78-2.67-2.6-4.5-4.81-8.67c-.63-1.19-.76-2.62-1.5-3.69-2.66-3.84-4.91-8.77-6.84-11.97q-1.84-3.07-3.58-5.7-.75-1.14-1.91-.42-3.95 2.44-8.17 4.68c-1.81.96-4.43 1.33-6.36 2.96a.67.66 59.3 0 0-.19.77q1.62 3.89 3.81 7.52c3.4 5.66 5.59 9.99 8.49 14.97 1.45 2.49 2.43 5.95 4.57 8.66q.35.45.73.55.61.16 1.01-.4.24-.33.64-.44Zm-49.54-27.49 16.81 30.7q.26.47.74.23l15.33-7.64a.39.39 0 0 0 .17-.53l-16.16-30.67a1.4 1.35 59.4 0 0-1.96-.54c-1.92 1.27-4.26 1.71-6.16 2.75q-4.32 2.39-8.57 4.96-.46.28-.2.74Zm-34.5 20.794a.26.26 0 0 0-.208-.303l-72.525-13.442a.26.26 0 0 0-.303.208l-3.824 20.63a.26.26 0 0 0 .208.302l72.525 13.442a.26.26 0 0 0 .303-.208l3.824-20.63Zm-230.79 25.306q.37-.36.46-.82.11-.53-.36-.81-24.45-14.22-49.73-26.89-7.57-3.79-15.02-7.69a.85.85 0 0 0-1.14.36l-9.91 18.77q-.42.8.39 1.2 32.95 16.1 64.35 35.01a.2.2 0 0 0 .28-.09q1.35-2.88 3.08-5.61.64-1.01 1.23-2.06 2.7-4.85 5.53-9.62.4-.67.63-1.41a.78.75 77.7 0 1 .21-.34Zm745.4-11.85c-7.7 23.01-24.83 40.26-46.01 51.46a.49.49 0 0 0-.18.71l11.8 17.39a.69.69 0 0 0 .9.22c25.65-14.05 47.55-37.57 56.77-65.77q1.18-3.61 1.24-7.67.12-8.14-.05-16.36-.01-.5-.52-.5l-169.68.01q-.58 0-.58.57v18.95a.5.5 0 0 0 .5.5h145.46q.52 0 .35.49Zm-982.32 109.31a.5.5 0 0 1-.5.5h-70.56a.5.5 0 0 0-.5.5l-.01 19.49a.5.5 0 0 0 .5.5l166.13.01a.5.5 0 0 0 .5-.5l-.03-19.5a.5.5 0 0 0-.5-.5h-70.46a.5.5 0 0 1-.5-.5l-.03-105.46a.5.5 0 0 1 .5-.5l63.97-.02a.5.5 0 0 0 .5-.5l.01-19.65a.5.5 0 0 0-.5-.5h-153a.5.5 0 0 0-.5.5l-.01 19.67a.5.5 0 0 0 .5.5l63.99-.02a.5.5 0 0 1 .5.5v105.48Zm762-126.18a.42.42 0 0 0-.42-.42H2569.1a.42.42 0 0 0-.42.42v21.48a.42.42 0 0 0 .42.42h140.72a.42.42 0 0 0 .42-.42v-21.48Zm-460.95 88.07q4.73-5.48 5.81-7.84c1.97-4.33 4.96-8.32 6.71-12.31q2.8-6.4 5.32-12.92 7.08-18.3 10.37-37.74a.45.44-79.1 0 0-.34-.51l-20.42-4.5q-.88-.2-1.04.69-3.31 18.12-10.54 35.54-19.06 45.92-64.32 66.39c-21.04 9.51-43.61 14.64-66.56 16.55a.42.42 0 0 0-.38.48q1.48 10.61 3.1 21.25.18 1.18 1.18.6.43-.24.91-.28c50.69-4.33 99.31-22.34 130.01-64.51q.04-.05.03-.12-.01-.16-.01-.31-.01-.27.17-.46Zm176.82 25.85c-25.58 15.56-57.27 22-87.18 24.27q-.89.07-.75.95l3.13 20.66a.21.21 0 0 0 .22.18c29.06-2.24 58.5-8.24 84.82-21.04q34.41-16.73 53.1-50.08c11.34-20.23 18.49-43.18 22.27-66.21q.08-.5-.42-.59l-20.2-3.45q-1.01-.17-1.18.84c-6.07 36.43-20.78 74.39-53.81 94.47Zm386.76 41.83c1.27-.83 3.06-1.18 4.41-2.01q5.72-3.54 9.75-6.39c25.56-18.13 33.89-45.66 37.21-76.23q1.94-17.82 1.71-35.78a.56.56 0 0 0-.57-.55l-21.19.04q-.97 0-.96.97c.11 20.29-1.17 40.79-6.95 60.06q-7.2 23.98-27.62 37.1-1 .64-2.96 1.52-1.53.68-2.96 1.56-3.56 2.19-7.15 4.09a.41.4-29.3 0 0-.16.56l10.48 17.96a.89.89 0 0 0 1.14.35q3.09-1.45 5.82-3.25Zm-409.083-99.88a.26.26 0 0 0-.206-.305l-69.915-13.464a.26.26 0 0 0-.305.206l-3.948 20.504a.26.26 0 0 0 .206.304l69.915 13.464a.26.26 0 0 0 .305-.206l3.948-20.504Zm321.203 69.68a.56.56 0 0 0-.56-.56h-169.96a.56.56 0 0 0-.56.56v21.04a.56.56 0 0 0 .56.56h169.96a.56.56 0 0 0 .56-.56v-21.04ZM1460.63 244.15l32.48-33.03a.73.73 0 0 1 1.03 0l86.44 85.88a.73.73 0 0 0 1.02 0l86.66-85.87a.73.73 0 0 1 1.02 0l32.55 31.99a.73.73 0 0 1 0 1.04l-86.71 86.92a.73.73 0 0 0 0 1.03l85.63 86.37a.73.73 0 0 1 0 1.02l-31.99 32.49a.73.73 0 0 1-1.03 0l-86.64-85.86a.73.73 0 0 0-1.03.01l-85.39 85.88a.73.73 0 0 1-1.04 0l-32.51-32.51a.73.73 0 0 1 0-1.03l85.38-86.39a.73.73 0 0 0 0-1.03l-85.87-85.88a.73.73 0 0 1 0-1.03Z"/><path fill="#fff" d="m483.5 240.8 15.23-7.57a.83.83 0 0 1 1.06.3l3.11 4.92a.53.52 39.7 0 1 .05.48q-.26.69.28.93.45.2.68.64l12.88 23.94a1.22 1.21-36.4 0 1-.22 1.44q-1.88 1.88-4.38 2.29-.56.09-1.05.36l-9.95 5.36q-.59.32-1-.21-.67-.87-.76-2.01-.04-.44-.34-.77-1.58-1.81-2.54-3.95-1.62-3.6-2-4.25c-1.91-3.26-4.59-6.79-5.89-10.3-1.24-3.35-3.8-6.65-5.71-9.58a1.4 1.4 0 0 1 .55-2.02ZM731.8 233.46l11.7 34.41a.35.35 0 0 1-.23.45l-16.97 4.85a.35.35 0 0 1-.43-.22l-11.88-34.67a.35.35 0 0 1 .24-.45l17.14-4.6a.35.35 0 0 1 .43.23ZM2499.35 275.92q-.4.56-1.01.4-.38-.1-.73-.55c-2.14-2.71-3.12-6.17-4.57-8.66-2.9-4.98-5.09-9.31-8.49-14.97q-2.19-3.63-3.81-7.52a.67.66 59.3 0 1 .19-.77c1.93-1.63 4.55-2 6.36-2.96q4.22-2.24 8.17-4.68 1.16-.72 1.91.42 1.74 2.63 3.58 5.7c1.93 3.2 4.18 8.13 6.84 11.97.74 1.07.87 2.5 1.5 3.69q2.21 4.17 4.81 8.67 1.02 1.75-.78 2.67-2.39 1.23-5.56 2.82c-1.42.71-3.51 1.1-5.06 2.43q-.28.24-.65.34l-2.06.56q-.4.11-.64.44ZM699.04 275.49l-10.98-31.88a1.8 1.79 71.1 0 1 1.11-2.28l13.79-4.77a1.83 1.82 66.6 0 1 2.21.88c1.92 3.64 3.12 8.74 4.14 11.75q3.18 9.34 6.67 21.04.2.66-.46.85l-16.05 4.64a.35.35 0 0 1-.43-.23ZM474.15 246.49q.85 1.15 1.51 2.38 1.07 2.02 2.58 3.76.65.75 1.48 3.19c1.25 3.7 3.69 7.24 5.79 10.63a1.69 1.69 0 0 1-.69 2.41l-14.64 7.22a.52.51 62.1 0 1-.68-.21l-16.76-30.7a.96.95-32.2 0 1 .28-1.22c2.26-1.63 5.12-2.09 7.3-3.37q3.04-1.78 6.01-3.65a2.13 2.12 56.2 0 1 2.88.58q2.09 3 4.42 6.84.24.4.25.85v.46q0 .46.27.83ZM2467.26 278.69l-16.81-30.7q-.26-.46.2-.74 4.25-2.57 8.57-4.96c1.9-1.04 4.24-1.48 6.16-2.75a1.4 1.35 59.4 0 1 1.96.54l16.16 30.67a.39.39 0 0 1-.17.53l-15.33 7.64q-.48.24-.74-.23Z"/><path fill="#fff" d="m597.73 308.76-.04 44.99a.58.47 0 0 1-.58.47l-20.82-.01a1.03 1.03 0 0 1-1.02-1.03l.01-44.42q0-.52-.52-.52l-33.05.01a.54.54 0 0 1-.54-.54v-19.53a.63.63 0 0 1 .63-.63l32.95-.03q.51 0 .51-.52l.02-36.26a.48.47 0 0 1 .48-.47l21.49-.02a.5.49 90 0 1 .49.5l-.06 36.23a.55.55 0 0 0 .55.55l64.75.01q.53 0 .53-.52v-36.27a.49.49 0 0 1 .49-.49h22.25a.49.49 0 0 1 .49.49v36.26q0 .53.52.53h39.79a.26.26 0 0 1 .26.26l-.01 19.93q0 .52-.53.52h-39.51q-.48 0-.49.48-.06 7.32-.1 14.51c-.13 30.98-6.78 66.05-35.52 83.67-19.54 11.97-43.21 16.65-66.44 18.72q-.66.06-.8-.59l-4.06-19.33a.54.54 0 0 1 .48-.65c14.09-1.34 28.98-3.6 42.22-8.55 27.88-10.44 38.03-30 40.21-58.97q1.08-14.39.69-28.83-.02-.46-.48-.46h-64.73q-.51 0-.51.51ZM864.74 329.79a.6.6 0 0 0-.84-.55q-39.59 17.52-82.45 23.89a.49.47 80.8 0 1-.54-.4l-3.39-19.99a.74.73-8.7 0 1 .63-.85c28.07-3.78 55.7-12.3 81.43-24.12 29.12-13.38 55.14-30.28 77.73-53.09q.4-.4.77.02l13.3 15.2q.4.46.01.92-.8.92-1.99 2.08c-18.08 17.63-38.01 31.45-59.97 43.83q-.44.25-.44.76l.03 107.25a.51.51 0 0 1-.51.51h-23.27a.51.51 0 0 1-.51-.51l.01-94.95Z"/><rect width="74.28" height="21.5" x="-37.14" y="-10.75" fill="#fff" rx=".26" transform="rotate(10.5 -293.113 13073.347)"/><path fill="#fff" d="M1025.19 257.3c22 10.72 43.44 21.99 64.62 34.48q.67.39.29 1.06l-10.94 19.17q-.27.47-.74.19c-20.88-12.37-42.3-24.43-64.21-34.89q-.56-.27-.27-.81l9.88-18.75a1.04 1.03-63.1 0 1 1.37-.45ZM2184.95 294.43q-.23.74-.63 1.41-2.83 4.77-5.53 9.62-.59 1.05-1.23 2.06-1.73 2.73-3.08 5.61a.2.2 0 0 1-.28.09q-31.4-18.91-64.35-35.01-.81-.4-.39-1.2l9.91-18.77a.85.85 0 0 1 1.14-.36q7.45 3.9 15.02 7.69 25.28 12.67 49.73 26.89.47.28.36.81-.09.46-.46.82a.78.75 77.7 0 0-.21.34Z"/><rect width="111.5" height="20.72" x="343.53" y="259.77" fill="#fff" rx=".66"/><path fill="#fff" d="M2930.21 281.75h-145.46a.5.5 0 0 1-.5-.5V262.3q0-.57.58-.57l169.68-.01q.51 0 .52.5.17 8.22.05 16.36-.06 4.06-1.24 7.67c-9.22 28.2-31.12 51.72-56.77 65.77a.69.69 0 0 1-.9-.22l-11.8-17.39a.49.49 0 0 1 .18-.71c21.18-11.2 38.31-28.45 46.01-51.46q.17-.49-.35-.49ZM1948.24 391.55V286.07a.5.5 0 0 0-.5-.5l-63.99.02a.5.5 0 0 1-.5-.5l.01-19.67a.5.5 0 0 1 .5-.5h153a.5.5 0 0 1 .5.5l-.01 19.65a.5.5 0 0 1-.5.5l-63.97.02a.5.5 0 0 0-.5.5l.03 105.46a.5.5 0 0 0 .5.5h70.46a.5.5 0 0 1 .5.5l.03 19.5a.5.5 0 0 1-.5.5l-166.13-.01a.5.5 0 0 1-.5-.5l.01-19.49a.5.5 0 0 1 .5-.5h70.56a.5.5 0 0 0 .5-.5Z"/><rect width="141.56" height="22.32" x="2568.68" y="264.95" fill="#fff" rx=".42"/><path fill="#fff" d="M1164.59 335.99c-1.16 2.99-3.63 6.32-5.4 9.05q-.16.26-1.31 2.59c-.8 1.63-2.27 2.64-3.13 4.47q-.6 1.27-1.29 2.13-7.56 9.41-10.84 12.89c-31.37 33.33-75.99 47.49-120.41 51.13q-.54.04-.62-.5l-3.1-21q-.12-.77.66-.83 31.62-2.32 61.18-14.07c46.24-18.37 70.92-57.33 80.1-104.67q.1-.48.57-.37l21.21 4.68a.38.37-62.3 0 1 .19.62q-.14.15-.27.3-.2.23-.25.53-4.09 23.78-13.89 45.83c-1.08 2.44-2.38 4.58-3.4 7.22ZM2249.12 353.9q0 .15.01.31.01.07-.03.12c-30.7 42.17-79.32 60.18-130.01 64.51q-.48.04-.91.28-1 .58-1.18-.6-1.62-10.64-3.1-21.25a.42.42 0 0 1 .38-.48c22.95-1.91 45.52-7.04 66.56-16.55q45.26-20.47 64.32-66.39 7.23-17.42 10.54-35.54.16-.89 1.04-.69l20.42 4.5a.45.44-79.1 0 1 .34.51q-3.29 19.44-10.37 37.74-2.52 6.52-5.32 12.92c-1.75 3.99-4.74 7.98-6.71 12.31q-1.08 2.36-5.81 7.84-.18.19-.17.46ZM2338.93 403.56c29.91-2.27 61.6-8.71 87.18-24.27 33.03-20.08 47.74-58.04 53.81-94.47q.17-1.01 1.18-.84l20.2 3.45q.5.09.42.59c-3.78 23.03-10.93 45.98-22.27 66.21q-18.69 33.35-53.1 50.08c-26.32 12.8-55.76 18.8-84.82 21.04a.21.21 0 0 1-.22-.18l-3.13-20.66q-.14-.88.75-.95ZM2812.87 421.12q-2.73 1.8-5.82 3.25a.89.89 0 0 1-1.14-.35l-10.48-17.96a.41.4-29.3 0 1 .16-.56q3.59-1.9 7.15-4.09 1.43-.88 2.96-1.56 1.96-.88 2.96-1.52 20.42-13.12 27.62-37.1c5.78-19.27 7.06-39.77 6.95-60.06q-.01-.97.96-.97l21.19-.04a.56.56 0 0 1 .57.55q.23 17.96-1.71 35.78c-3.32 30.57-11.65 58.1-37.21 76.23q-4.03 2.85-9.75 6.39c-1.35.83-3.14 1.18-4.41 2.01Z"/><rect width="71.72" height="21.4" x="-35.86" y="-10.7" fill="#fff" rx=".26" transform="rotate(10.9 -518.385 12564.831)"/><path fill="#fff" d="m355.48 427.23-6.33-19.2a1.02 1.01 85.9 0 1 1.14-1.33q.54.1 1.34-.31c1.61-.83 3.35-.74 4.8-1.22q5.57-1.86 10.86-4.41.23-.12.47-.13l.33-.02q.16 0 .3-.06 10.69-4.33 18.78-11.38c13.97-12.2 18.6-32.54 18.25-50.4q-.02-.6-.62-.6l-85.1-.04a.69.68 0 0 1-.69-.68l-.02-19.7a.26.26 0 0 1 .26-.26h181.23q.5 0 .5.49v19.35q0 .8-.81.8l-70.2.02q-.48 0-.51.49c-.65 12.98-1.56 23.22-5.29 35.09-10.05 31.94-37.49 46.76-67.78 54.01q-.69.17-.91-.51Z"/><rect width="171.08" height="22.16" x="2553.91" y="390.36" fill="#fff" rx=".56"/></svg>